STARTFONT 2.1
FONT -FontForge-Untitled1-Regular-R-Normal--100-960-75-75-P-611-ISO8859-1
SIZE 96 75 75
FONTBOUNDINGBOX 111 98 -5 -25
COMMENT "Generated by fontforge, http://fontforge.sourceforge.net"
COMMENT "Copyright (c) 2020, Chris"
STARTPROPERTIES 31
FOUNDRY "FontForge"
FAMILY_NAME "Untitled1"
WEIGHT_NAME "Regular"
SLANT "R"
SETWIDTH_NAME "Normal"
ADD_STYLE_NAME ""
PIXEL_SIZE 100
POINT_SIZE 960
RESOLUTION_X 75
RESOLUTION_Y 75
SPACING "P"
AVERAGE_WIDTH 611
CHARSET_REGISTRY "ISO8859"
CHARSET_ENCODING "1"
FONTNAME_REGISTRY ""
CHARSET_COLLECTIONS "ISOLatin1Encoding"
FONT_NAME "Untitled1"
FACE_NAME "Untitled1"
COPYRIGHT "Copyright (c) 2020, Chris"
FONT_VERSION "001.000"
FONT_ASCENT 80
FONT_DESCENT 20
UNDERLINE_POSITION -10
UNDERLINE_THICKNESS 5
X_HEIGHT 47
CAP_HEIGHT 71
RAW_ASCENT 800
RAW_DESCENT 200
FIGURE_WIDTH -1
AVG_LOWERCASE_WIDTH 498
AVG_UPPERCASE_WIDTH 725
ENDPROPERTIES
CHARS 52
STARTCHAR A
ENCODING 65
SWIDTH 754 0
DWIDTH 75 0
BBX 69 74 4 -1
BITMAP
000000003C00000000
000000007C00000000
000000007E00000000
000000007E00000000
00000000FE00000000
00000000FF00000000
00000001FF00000000
00000001FF00000000
00000001FF80000000
00000003FF80000000
00000003FF80000000
00000003FFC0000000
00000007FFC0000000
00000007FFC0000000
00000007FFE0000000
0000000FFFE0000000
0000000FFFE0000000
0000000FFFF0000000
0000001FFFF0000000
0000001FFFF0000000
0000001FFFF8000000
0000003FFFF8000000
0000003FFFF8000000
0000003FFFFC000000
0000007BFFFC000000
00000079FFFC000000
00000079FFFE000000
000000F1FFFE000000
000000F0FFFE000000
000000F0FFFF000000
000001E0FFFF000000
000001E07FFF000000
000001E07FFF800000
000003C07FFF800000
000003C03FFF800000
000003C03FFF800000
000007803FFFC00000
000007801FFFC00000
000007801FFFC00000
00000F001FFFE00000
00000F000FFFE00000
00000F000FFFE00000
00001E000FFFF00000
00001E0007FFF00000
00001E0007FFF00000
00003C0007FFF80000
00003C0003FFF80000
00003C0003FFF80000
0000780003FFFC0000
0000780003FFFC0000
0000780001FFFC0000
0000FFFFFFFFFE0000
0000FFFFFFFFFE0000
0000FFFFFFFFFE0000
0001FFFFFFFFFF0000
0001E00000FFFF0000
0001E000007FFF0000
0003C000007FFF8000
0003C000007FFF8000
0003C000003FFF8000
00078000003FFFC000
00078000003FFFC000
00078000001FFFC000
000F0000001FFFE000
000F0000001FFFE000
001F0000000FFFE000
001F0000000FFFF000
003F0000000FFFF000
007F8000000FFFF800
00FFC000001FFFFC00
03FFE000003FFFFE00
FFFFFFC03FFFFFFFF8
FFFFFFC03FFFFFFFF8
FFFFFFC03FFFFFFFF8
ENDCHAR
STARTCHAR B
ENCODING 66
SWIDTH 710 0
DWIDTH 71 0
BBX 60 73 6 -1
BITMAP
FFFFFFFFFF800000
FFFFFFFFFFF80000
FFFFFFFFFFFE0000
007FFF800FFF8000
007FFF8003FFE000
003FFF0001FFF000
003FFF0000FFF800
003FFF00007FFC00
003FFF00007FFE00
003FFF00003FFF00
003FFF00003FFF00
003FFF00003FFF80
003FFF00003FFF80
003FFF00001FFF80
003FFF00001FFFC0
003FFF00001FFFC0
003FFF00001FFFC0
003FFF00001FFFC0
003FFF00001FFFC0
003FFF00001FFFC0
003FFF00001FFF80
003FFF00001FFF80
003FFF00001FFF80
003FFF00003FFF80
003FFF00003FFF00
003FFF00003FFE00
003FFF00003FFE00
003FFF00007FFC00
003FFF00007FF800
003FFF00007FE000
003FFF0000FFC000
003FFF0001FF0000
003FFF0007FC0000
003FFFFFFFF00000
003FFFFFFF800000
003FFFFFFFF00000
003FFF000FFE0000
003FFF0001FF8000
003FFF0000FFE000
003FFF00007FF000
003FFF00003FFC00
003FFF00003FFE00
003FFF00001FFF00
003FFF00001FFF80
003FFF00001FFFC0
003FFF00000FFFC0
003FFF00000FFFE0
003FFF00000FFFE0
003FFF00000FFFF0
003FFF00000FFFF0
003FFF00000FFFF0
003FFF00000FFFF0
003FFF00000FFFF0
003FFF00000FFFF0
003FFF00000FFFF0
003FFF00000FFFF0
003FFF00000FFFF0
003FFF00000FFFF0
003FFF00000FFFE0
003FFF00000FFFE0
003FFF00000FFFE0
003FFF00001FFFC0
003FFF00001FFFC0
003FFF00001FFF80
003FFF00003FFF80
003FFF00003FFF00
003FFF00007FFE00
003FFF0000FFFC00
007FFF8001FFF000
007FFF800FFFE000
FFFFFFFFFFFF8000
FFFFFFFFFFFC0000
FFFFFFFFFFC00000
ENDCHAR
STARTCHAR C
ENCODING 67
SWIDTH 660 0
DWIDTH 66 0
BBX 54 75 7 -2
BITMAP
000001FF000000
00001FFFE00070
00007FFFF800F0
0001FFC3FE00F0
0003FE003F81F0
0007FC000FC1F0
000FF80007F7F0
003FF00003FFF0
003FF00001FFF0
007FE00000FFF0
00FFE000007FF0
01FFC000007FF0
01FFC000003FF0
03FFC000001FF0
07FFC000001FF0
07FF8000000FF0
0FFF8000000FF0
0FFF80000007F0
1FFF80000007F0
1FFF80000003F0
1FFF80000003F0
3FFF80000003F0
3FFF80000001F0
3FFF80000001F0
3FFF80000001F0
7FFF80000000F0
7FFF80000000F0
7FFF80000000F0
7FFF80000000F0
7FFF8000000070
FFFF8000000070
FFFF8000000070
FFFF8000000000
FFFF8000000000
FFFF8000000000
FFFF8000000000
FFFF8000000000
FFFF8000000000
FFFF8000000000
FFFF8000000000
FFFF8000000000
FFFF8000000000
FFFF8000000000
FFFF8000000000
FFFF8000000000
7FFF8000000000
7FFF800000003C
7FFF800000003C
7FFF800000003C
7FFF800000003C
3FFF800000003C
3FFF8000000038
3FFF8000000038
3FFF8000000078
1FFF8000000078
1FFF8000000078
0FFF80000000F0
0FFF80000000F0
0FFF80000000F0
07FFC0000001E0
07FFC0000001E0
03FFC0000003C0
01FFC0000003C0
01FFE000000780
00FFE000000F80
007FE000000F00
003FF000001E00
001FF800007E00
000FFC0000FC00
0007FE0001F800
0003FF000FE000
0000FFE07FC000
00007FFFFF0000
00000FFFFC0000
000000FFC00000
ENDCHAR
STARTCHAR D
ENCODING 68
SWIDTH 786 0
DWIDTH 79 0
BBX 68 73 6 -1
BITMAP
FFFFFFFFFFE0000000
FFFFFFFFFFFC000000
FFFFFFFFFFFF800000
007FFF8001FFE00000
007FFF80003FF80000
003FFF00000FFC0000
003FFF000007FE0000
003FFF000003FF0000
003FFF000001FF8000
003FFF000000FFC000
003FFF000000FFE000
003FFF0000007FF000
003FFF0000007FF800
003FFF0000003FF800
003FFF0000003FFC00
003FFF0000003FFE00
003FFF0000003FFE00
003FFF0000003FFF00
003FFF0000003FFF00
003FFF0000001FFF80
003FFF0000001FFF80
003FFF0000001FFF80
003FFF0000001FFFC0
003FFF0000001FFFC0
003FFF0000001FFFC0
003FFF0000001FFFC0
003FFF0000001FFFE0
003FFF0000001FFFE0
003FFF0000001FFFE0
003FFF0000001FFFE0
003FFF0000001FFFE0
003FFF0000001FFFE0
003FFF0000001FFFE0
003FFF0000001FFFF0
003FFF0000001FFFF0
003FFF0000001FFFF0
003FFF0000001FFFF0
003FFF0000001FFFF0
003FFF0000001FFFF0
003FFF0000001FFFE0
003FFF0000001FFFE0
003FFF0000001FFFE0
003FFF0000001FFFE0
003FFF0000001FFFE0
003FFF0000001FFFE0
003FFF0000001FFFE0
003FFF0000001FFFC0
003FFF0000001FFFC0
003FFF0000001FFFC0
003FFF0000001FFFC0
003FFF0000001FFF80
003FFF0000001FFF80
003FFF0000001FFF80
003FFF0000001FFF00
003FFF0000003FFF00
003FFF0000003FFE00
003FFF0000003FFE00
003FFF0000003FFC00
003FFF0000003FFC00
003FFF0000003FF800
003FFF0000007FF000
003FFF0000007FF000
003FFF000000FFE000
003FFF000000FFC000
003FFF000001FF8000
003FFF000003FF0000
003FFF000007FE0000
003FFF00000FFC0000
007FFF80003FF00000
007FFF8001FFE00000
FFFFFFFFFFFF800000
FFFFFFFFFFFC000000
FFFFFFFFFFE0000000
ENDCHAR
STARTCHAR E
ENCODING 69
SWIDTH 690 0
DWIDTH 69 0
BBX 58 73 6 -1
BITMAP
FFFFFFFFFFFFFF00
FFFFFFFFFFFFFF00
FFFFFFFFFFFFFF00
007FFF8000FFFF00
007FFF80001FFF80
003FFF00000FFF80
003FFF000003FF80
003FFF000001FF80
003FFF000001FF80
003FFF000000FF80
003FFF0000007F80
003FFF0000007F80
003FFF0000003F80
003FFF0000001F80
003FFF0000001F80
003FFF0000001F80
003FFF0000000F80
003FFF0000000F80
003FFF0000000F80
003FFF0000000780
003FFF0001E00780
003FFF0001E00780
003FFF0001E00380
003FFF0001E00380
003FFF0001E00000
003FFF0003E00000
003FFF0003E00000
003FFF0003E00000
003FFF0007E00000
003FFF000FE00000
003FFF000FE00000
003FFF001FE00000
003FFF003FE00000
003FFF00FFE00000
003FFFFFFFE00000
003FFFFFFFE00000
003FFFFFFFE00000
003FFFFFFFE00000
003FFF007FE00000
003FFF003FE00000
003FFF001FE00000
003FFF000FE00000
003FFF0007E00000
003FFF0007E00000
003FFF0003E00000
003FFF0003E003C0
003FFF0003E003C0
003FFF0001E003C0
003FFF0001E003C0
003FFF0001E003C0
003FFF0001E003C0
003FFF0001E007C0
003FFF00000007C0
003FFF00000007C0
003FFF00000007C0
003FFF0000000FC0
003FFF0000000FC0
003FFF0000000FC0
003FFF0000001FC0
003FFF0000001F80
003FFF0000003F80
003FFF0000003F80
003FFF0000007F80
003FFF000000FF80
003FFF000001FF80
003FFF000001FF80
003FFF000003FF80
003FFF000007FF80
007FFF80001FFF80
007FFF8000FFFF80
FFFFFFFFFFFFFF80
FFFFFFFFFFFFFF80
FFFFFFFFFFFFFF80
ENDCHAR
STARTCHAR F
ENCODING 70
SWIDTH 670 0
DWIDTH 67 0
BBX 57 73 6 -1
BITMAP
FFFFFFFFFFFFFF80
FFFFFFFFFFFFFF80
FFFFFFFFFFFFFF80
007FFF8000FFFF80
007FFF80003FFF80
003FFF00000FFF80
003FFF000007FF80
003FFF000003FF80
003FFF000001FF80
003FFF000000FF80
003FFF000000FF80
003FFF0000007F80
003FFF0000003F80
003FFF0000003F80
003FFF0000001F80
003FFF0000001F80
003FFF0000001F80
003FFF0000000F80
003FFF0000000F80
003FFF0000000F80
003FFF0001E00780
003FFF0001E00780
003FFF0001E00780
003FFF0001E00780
003FFF0001E00380
003FFF0003E00380
003FFF0003E00380
003FFF0003E00380
003FFF0007E00000
003FFF000FE00000
003FFF000FE00000
003FFF001FE00000
003FFF003FE00000
003FFF00FFE00000
003FFFFFFFE00000
003FFFFFFFE00000
003FFFFFFFE00000
003FFFFFFFE00000
003FFF007FE00000
003FFF003FE00000
003FFF001FE00000
003FFF000FE00000
003FFF0007E00000
003FFF0007E00000
003FFF0003E00000
003FFF0003E00000
003FFF0003E00000
003FFF0001E00000
003FFF0001E00000
003FFF0001E00000
003FFF0001E00000
003FFF0001E00000
003FFF0000000000
003FFF0000000000
003FFF0000000000
003FFF0000000000
003FFF0000000000
003FFF0000000000
003FFF0000000000
003FFF0000000000
003FFF0000000000
003FFF0000000000
003FFF0000000000
003FFF0000000000
003FFF0000000000
003FFF0000000000
003FFF0000000000
003FFF0000000000
007FFF8000000000
007FFF8000000000
FFFFFFFFF0000000
FFFFFFFFF0000000
FFFFFFFFF0000000
ENDCHAR
STARTCHAR G
ENCODING 71
SWIDTH 720 0
DWIDTH 72 0
BBX 62 75 7 -2
BITMAP
0000007FC0000000
000007FFF8001E00
00001FFFFF001E00
00007FE0FF803E00
0001FF000FE03E00
0003FC0003F87E00
0007F80001FEFE00
000FF00000FFFE00
001FF000007FFE00
003FE000003FFE00
007FE000001FFE00
00FFC000000FFE00
01FFC000000FFE00
01FFC0000007FE00
03FFC0000007FE00
07FF80000003FE00
07FF80000001FE00
0FFF80000001FE00
0FFF80000000FE00
0FFF80000000FE00
1FFF80000000FE00
1FFF800000007E00
3FFF800000007E00
3FFF800000003E00
3FFF800000003E00
7FFF800000003E00
7FFF800000001E00
7FFF800000001E00
7FFF800000001E00
7FFF800000001E00
FFFF800000000000
FFFF800000000000
FFFF800000000000
FFFF800000000000
FFFF800000000000
FFFF800000000000
FFFF800000000000
FFFF800000000000
FFFF8007FFFFFFFC
FFFF8007FFFFFFFC
FFFF8007FFFFFFFC
FFFF800001FFFE00
FFFF800000FFFE00
FFFF800000FFFE00
FFFF800000FFFE00
7FFF800000FFFE00
7FFF800000FFFE00
7FFF800000FFFE00
7FFF800000FFFE00
7FFF800000FFFE00
7FFF800000FFFE00
3FFF800000FFFE00
3FFF800000FFFE00
3FFF800000FFFE00
1FFF800000FFFE00
1FFF800000FFFE00
1FFF800000FFFE00
0FFF800000FFFE00
0FFF800000FFFE00
07FF800000FFFE00
07FFC00001FFFE00
03FFC00001FFFE00
01FFC00001FFFE00
01FFC00001F8FE00
00FFE00003F07E00
007FE00003E07E00
003FE00007C07E00
003FF0000FC03E00
000FF8000F803E00
0007FC003F003E00
0003FE007E003E00
0001FF81FC001E00
00007FFFF0001E00
00001FFFC0001E00
000001FF00001E00
ENDCHAR
STARTCHAR H
ENCODING 72
SWIDTH 824 0
DWIDTH 82 0
BBX 72 73 6 -1
BITMAP
FFFFFFFFC3FFFFFFFF
FFFFFFFFC3FFFFFFFF
FFFFFFFFC3FFFFFFFF
007FFF800001FFFF00
007FFF800000FFFE00
003FFF000000FFFE00
003FFF000000FFFE00
003FFF000000FFFE00
003FFF000000FFFE00
003FFF000000FFFE00
003FFF000000FFFE00
003FFF000000FFFE00
003FFF000000FFFE00
003FFF000000FFFE00
003FFF000000FFFE00
003FFF000000FFFE00
003FFF000000FFFE00
003FFF000000FFFE00
003FFF000000FFFE00
003FFF000000FFFE00
003FFF000000FFFE00
003FFF000000FFFE00
003FFF000000FFFE00
003FFF000000FFFE00
003FFF000000FFFE00
003FFF000000FFFE00
003FFF000000FFFE00
003FFF000000FFFE00
003FFF000000FFFE00
003FFF000000FFFE00
003FFF000000FFFE00
003FFF000000FFFE00
003FFF000000FFFE00
003FFFFFFFFFFFFE00
003FFFFFFFFFFFFE00
003FFFFFFFFFFFFE00
003FFFFFFFFFFFFE00
003FFF000000FFFE00
003FFF000000FFFE00
003FFF000000FFFE00
003FFF000000FFFE00
003FFF000000FFFE00
003FFF000000FFFE00
003FFF000000FFFE00
003FFF000000FFFE00
003FFF000000FFFE00
003FFF000000FFFE00
003FFF000000FFFE00
003FFF000000FFFE00
003FFF000000FFFE00
003FFF000000FFFE00
003FFF000000FFFE00
003FFF000000FFFE00
003FFF000000FFFE00
003FFF000000FFFE00
003FFF000000FFFE00
003FFF000000FFFE00
003FFF000000FFFE00
003FFF000000FFFE00
003FFF000000FFFE00
003FFF000000FFFE00
003FFF000000FFFE00
003FFF000000FFFE00
003FFF000000FFFE00
003FFF000000FFFE00
003FFF000000FFFE00
003FFF000000FFFE00
003FFF000000FFFE00
007FFF800000FFFE00
007FFF800001FFFF00
FFFFFFFFC1FFFFFFFF
FFFFFFFFC1FFFFFFFF
FFFFFFFFC1FFFFFFFF
ENDCHAR
STARTCHAR I
ENCODING 73
SWIDTH 440 0
DWIDTH 44 0
BBX 34 73 6 -1
BITMAP
FFFFFFFFC0
FFFFFFFFC0
FFFFFFFFC0
007FFF8000
007FFF8000
003FFF0000
003FFF0000
003FFF0000
003FFF0000
003FFF0000
003FFF0000
003FFF0000
003FFF0000
003FFF0000
003FFF0000
003FFF0000
003FFF0000
003FFF0000
003FFF0000
003FFF0000
003FFF0000
003FFF0000
003FFF0000
003FFF0000
003FFF0000
003FFF0000
003FFF0000
003FFF0000
003FFF0000
003FFF0000
003FFF0000
003FFF0000
003FFF0000
003FFF0000
003FFF0000
003FFF0000
003FFF0000
003FFF0000
003FFF0000
003FFF0000
003FFF0000
003FFF0000
003FFF0000
003FFF0000
003FFF0000
003FFF0000
003FFF0000
003FFF0000
003FFF0000
003FFF0000
003FFF0000
003FFF0000
003FFF0000
003FFF0000
003FFF0000
003FFF0000
003FFF0000
003FFF0000
003FFF0000
003FFF0000
003FFF0000
003FFF0000
003FFF0000
003FFF0000
003FFF0000
003FFF0000
003FFF0000
003FFF0000
007FFF8000
007FFF8000
FFFFFFFFC0
FFFFFFFFC0
FFFFFFFFC0
ENDCHAR
STARTCHAR J
ENCODING 74
SWIDTH 540 0
DWIDTH 54 0
BBX 47 74 4 -2
BITMAP
0007FFFFFFFE
0007FFFFFFFE
0007FFFFFFFE
000001FFFF00
000000FFFE00
000000FFFE00
000000FFFE00
000000FFFE00
000000FFFE00
000000FFFE00
000000FFFE00
000000FFFE00
000000FFFE00
000000FFFE00
000000FFFE00
000000FFFE00
000000FFFE00
000000FFFE00
000000FFFE00
000000FFFE00
000000FFFE00
000000FFFE00
000000FFFE00
000000FFFE00
000000FFFE00
000000FFFE00
000000FFFE00
000000FFFE00
000000FFFE00
000000FFFE00
000000FFFE00
000000FFFE00
000000FFFE00
000000FFFE00
000000FFFE00
000000FFFE00
000000FFFE00
000000FFFE00
000000FFFE00
000000FFFE00
000000FFFE00
000000FFFE00
000000FFFE00
000000FFFE00
000000FFFE00
07F000FFFE00
0FF800FFFE00
1FFC00FFFE00
3FFE00FFFE00
7FFE00FFFE00
7FFF00FFFE00
FFFF00FFFE00
FFFF00FFFE00
FFFF00FFFE00
FFFE00FFFC00
FFFE00FFFC00
FFFC00FFFC00
FFF800FFFC00
FFF000FFFC00
FFE000FFFC00
FF8000FFF800
FE0000FFF800
FE0000FFF000
7C0001FFF000
7C0001FFE000
3E0001FFC000
3E0001FFC000
1F0003FF8000
0F8007FF0000
07C00FFE0000
03F83FF80000
00FFFFE00000
003FFF800000
0007FC000000
ENDCHAR
STARTCHAR K
ENCODING 75
SWIDTH 770 0
DWIDTH 77 0
BBX 69 73 6 -1
BITMAP
FFFFFFFF80FFFFFF00
FFFFFFFF80FFFFFF00
FFFFFFFF80FFFFFF00
007FFF80000FFFE000
007FFF800007FF8000
003FFF000003FE0000
003FFF000003FC0000
003FFF000003F80000
003FFF000003F00000
003FFF000003F00000
003FFF000003E00000
003FFF000007C00000
003FFF00000F800000
003FFF00001F000000
003FFF00003E000000
003FFF00003E000000
003FFF00007C000000
003FFF0000F8000000
003FFF0001F0000000
003FFF0003E0000000
003FFF0007C0000000
003FFF0007C0000000
003FFF000F80000000
003FFF001F00000000
003FFF003E00000000
003FFF007F00000000
003FFF00FF00000000
003FFF00FF80000000
003FFF01FF80000000
003FFF03FFC0000000
003FFF07FFC0000000
003FFF0FFFE0000000
003FFF1FFFE0000000
003FFF1FFFF0000000
003FFF3FFFF0000000
003FFF7FFFF8000000
003FFFFFFFF8000000
003FFFF7FFFC000000
003FFFE3FFFE000000
003FFFC3FFFE000000
003FFF81FFFF000000
003FFF81FFFF000000
003FFF00FFFF800000
003FFF00FFFF800000
003FFF007FFFC00000
003FFF007FFFC00000
003FFF003FFFE00000
003FFF003FFFE00000
003FFF001FFFF00000
003FFF001FFFF00000
003FFF000FFFF80000
003FFF000FFFF80000
003FFF0007FFFC0000
003FFF0007FFFC0000
003FFF0003FFFE0000
003FFF0003FFFE0000
003FFF0001FFFF0000
003FFF0001FFFF0000
003FFF0000FFFF8000
003FFF0000FFFF8000
003FFF00007FFFC000
003FFF00007FFFC000
003FFF00003FFFE000
003FFF00003FFFE000
003FFF00001FFFF000
003FFF00001FFFF000
003FFF00000FFFF800
003FFF00000FFFFC00
007FFF80001FFFFC00
007FFF80001FFFFF00
FFFFFFFF83FFFFFFF8
FFFFFFFF83FFFFFFF8
FFFFFFFF83FFFFFFF8
ENDCHAR
STARTCHAR L
ENCODING 76
SWIDTH 670 0
DWIDTH 67 0
BBX 58 73 6 -1
BITMAP
FFFFFFFFC0000000
FFFFFFFFC0000000
FFFFFFFFC0000000
007FFF8000000000
007FFF8000000000
003FFF0000000000
003FFF0000000000
003FFF0000000000
003FFF0000000000
003FFF0000000000
003FFF0000000000
003FFF0000000000
003FFF0000000000
003FFF0000000000
003FFF0000000000
003FFF0000000000
003FFF0000000000
003FFF0000000000
003FFF0000000000
003FFF0000000000
003FFF0000000000
003FFF0000000000
003FFF0000000000
003FFF0000000000
003FFF0000000000
003FFF0000000000
003FFF0000000000
003FFF0000000000
003FFF0000000000
003FFF0000000000
003FFF0000000000
003FFF0000000000
003FFF0000000000
003FFF0000000000
003FFF0000000000
003FFF0000000000
003FFF0000000000
003FFF0000000000
003FFF0000000000
003FFF0000000000
003FFF0000000000
003FFF00000003C0
003FFF00000003C0
003FFF00000003C0
003FFF00000003C0
003FFF0000000780
003FFF0000000780
003FFF0000000780
003FFF0000000780
003FFF0000000780
003FFF0000000F80
003FFF0000000F80
003FFF0000000F80
003FFF0000001F80
003FFF0000001F80
003FFF0000001F80
003FFF0000003F80
003FFF0000003F80
003FFF0000007F80
003FFF0000007F80
003FFF000000FF80
003FFF000000FF80
003FFF000001FF80
003FFF000003FF80
003FFF000003FF80
003FFF000007FF80
003FFF00000FFF80
003FFF00001FFF80
007FFF80003FFF80
007FFF8001FFFF80
FFFFFFFFFFFFFF80
FFFFFFFFFFFFFF80
FFFFFFFFFFFFFF80
ENDCHAR
STARTCHAR M
ENCODING 77
SWIDTH 890 0
DWIDTH 89 0
BBX 81 74 5 -2
BITMAP
FFFFFF00000001FFFFFF80
FFFFFF00000001FFFFFF80
FFFFFF80000001FFFFFF80
007FFF80000003FFFF0000
003FFF80000003FFFF0000
003FFFC0000003FFFE0000
003FFFC0000003FFFE0000
003FFFC0000007FFFE0000
003FFFE0000007FFFE0000
003FFFE00000077FFE0000
003FFFF00000077FFE0000
003FFFF000000F7FFE0000
003FFFF000000F7FFE0000
003FFFF800000E7FFE0000
003FFFF800000E7FFE0000
003FFFF800001E7FFE0000
003FFFFC00001E7FFE0000
003FFFFC00001C7FFE0000
003DFFFC00003C7FFE0000
003DFFFE00003C7FFE0000
003CFFFE0000387FFE0000
003CFFFE0000387FFE0000
003C7FFF0000787FFE0000
003C7FFF0000787FFE0000
003C7FFF8000707FFE0000
003C3FFF8000707FFE0000
003C3FFF8000F07FFE0000
003C3FFFC000F07FFE0000
003C1FFFC000E07FFE0000
003C1FFFC000E07FFE0000
003C1FFFE001E07FFE0000
003C0FFFE001E07FFE0000
003C0FFFE001C07FFE0000
003C07FFF001C07FFE0000
003C07FFF003C07FFE0000
003C07FFF803807FFE0000
003C03FFF803807FFE0000
003C03FFF807807FFE0000
003C03FFFC07807FFE0000
003C01FFFC07007FFE0000
003C01FFFC07007FFE0000
003C01FFFE0F007FFE0000
003C00FFFE0F007FFE0000
003C00FFFE0E007FFE0000
003C007FFF0E007FFE0000
003C007FFF1E007FFE0000
003C007FFF9E007FFE0000
003C003FFF9C007FFE0000
003C003FFF9C007FFE0000
003C003FFFFC007FFE0000
003C001FFFFC007FFE0000
003C001FFFF8007FFE0000
003C001FFFF8007FFE0000
003C000FFFF8007FFE0000
003C000FFFF0007FFE0000
003C0007FFF0007FFE0000
003C0007FFF0007FFE0000
003C0007FFF0007FFE0000
003C0003FFE0007FFE0000
003C0003FFE0007FFE0000
003C0003FFE0007FFE0000
003C0001FFE0007FFE0000
003C0001FFC0007FFE0000
003E0001FFC0007FFE0000
007E0000FFC0007FFE0000
007E0000FFC0007FFE0000
00FF0000FF80007FFE0000
01FF80007F80007FFE0000
03FFE0007F8000FFFF0000
1FFFFC003F0000FFFF0000
FFFFFF803F01FFFFFFFF80
FFFFFF803F01FFFFFFFF80
FFFFFF801F01FFFFFFFF80
000000001E000000000000
ENDCHAR
STARTCHAR N
ENCODING 78
SWIDTH 764 0
DWIDTH 76 0
BBX 71 75 5 -3
BITMAP
FFFFFC00007FFFFFFE
FFFFFE00007FFFFFFE
FFFFFF00007FFFFFFE
0FFFFF000007FFFFE0
03FFFF800000FFFF00
01FFFFC000003FFC00
00FFFFC000001FF800
00FFFFE000000FF000
007FFFF000000FE000
003FFFF0000007E000
003FFFF8000007E000
001FFFFC000003C000
000FFFFE000003C000
000FFFFE000003C000
000FFFFF000003C000
000FFFFF800003C000
000FFFFF800003C000
000FFFFFC00003C000
000FFFFFE00003C000
000FFFFFE00003C000
000F7FFFF00003C000
000F3FFFF80003C000
000F1FFFF80003C000
000F1FFFFC0003C000
000F0FFFFE0003C000
000F07FFFE0003C000
000F07FFFF0003C000
000F03FFFF8003C000
000F01FFFF8003C000
000F01FFFFC003C000
000F00FFFFE003C000
000F007FFFF003C000
000F007FFFF003C000
000F003FFFF803C000
000F001FFFFC03C000
000F001FFFFC03C000
000F000FFFFE03C000
000F0007FFFF03C000
000F0007FFFF03C000
000F0003FFFF83C000
000F0001FFFFC3C000
000F0001FFFFC3C000
000F0000FFFFE3C000
000F00007FFFF3C000
000F00003FFFF3C000
000F00003FFFFBC000
000F00001FFFFFC000
000F00000FFFFFC000
000F00000FFFFFC000
000F000007FFFFC000
000F000003FFFFC000
000F000003FFFFC000
000F000001FFFFC000
000F000000FFFFC000
000F000000FFFFC000
000F0000007FFFC000
000F0000003FFFC000
000F0000003FFFC000
000F0000001FFFC000
000F0000000FFFC000
000F0000000FFFC000
000F80000007FFC000
000F80000003FFC000
001F80000003FFC000
001FC0000001FFC000
003FE0000000FFC000
007FF00000007FC000
00FFF80000007FC000
03FFFE0000003FC000
1FFFFFC000001FC000
FFFFFFF800001FC000
FFFFFFF800000FC000
FFFFFFF8000007C000
00000000000007C000
00000000000003C000
ENDCHAR
STARTCHAR O
ENCODING 79
SWIDTH 712 0
DWIDTH 71 0
BBX 59 75 7 -2
BITMAP
0000007FC0000000
000003FFF8000000
00001FFFFF000000
00003FE07FC00000
0000FF001FE00000
0001FC0007F00000
0003F80003FC0000
000FF00001FE0000
001FF00001FF0000
003FE00000FF8000
003FE00000FFC000
007FC000007FC000
00FFC000007FE000
01FFC000007FF000
01FFC000003FF000
03FF8000003FF800
03FF8000003FFC00
07FF8000003FFC00
0FFF8000003FFE00
0FFF8000003FFE00
0FFF8000003FFF00
1FFF8000003FFF00
1FFF8000003FFF00
3FFF8000003FFF80
3FFF8000003FFF80
3FFF8000003FFF80
7FFF8000003FFFC0
7FFF8000003FFFC0
7FFF8000003FFFC0
7FFF8000003FFFC0
7FFF8000003FFFE0
FFFF8000003FFFE0
FFFF8000003FFFE0
FFFF8000003FFFE0
FFFF8000003FFFE0
FFFF8000003FFFE0
FFFF8000003FFFE0
FFFF8000003FFFE0
FFFF8000003FFFE0
FFFF8000003FFFE0
FFFF8000003FFFE0
FFFF8000003FFFE0
FFFF8000003FFFE0
FFFF8000003FFFE0
7FFF8000003FFFE0
7FFF8000003FFFC0
7FFF8000003FFFC0
7FFF8000003FFFC0
7FFF8000003FFFC0
3FFF8000003FFF80
3FFF8000003FFF80
3FFF8000003FFF80
1FFF8000003FFF00
1FFF8000003FFF00
0FFF8000003FFF00
0FFF8000003FFE00
0FFF8000003FFE00
07FF8000003FFC00
03FF8000003FFC00
03FF8000003FF800
01FFC000003FF000
01FFC000007FF000
00FFC000007FE000
007FC000007FC000
003FE00000FFC000
001FE00000FF8000
001FF00001FF0000
000FF00001FE0000
0003F80003FC0000
0001FC0007F00000
0000FF001FE00000
00003FE07FC00000
00001FFFFF000000
000003FFFC000000
0000007FC0000000
ENDCHAR
STARTCHAR P
ENCODING 80
SWIDTH 702 0
DWIDTH 70 0
BBX 60 73 6 -1
BITMAP
FFFFFFFFFFC00000
FFFFFFFFFFFC0000
FFFFFFFFFFFF8000
007FFF8007FFE000
007FFF8001FFF000
003FFF0000FFF800
003FFF00007FFE00
003FFF00003FFE00
003FFF00003FFF00
003FFF00001FFF80
003FFF00001FFFC0
003FFF00001FFFC0
003FFF00001FFFE0
003FFF00001FFFE0
003FFF00000FFFE0
003FFF00000FFFE0
003FFF00000FFFF0
003FFF00000FFFF0
003FFF00000FFFF0
003FFF00000FFFF0
003FFF00000FFFF0
003FFF00000FFFF0
003FFF00000FFFE0
003FFF00000FFFE0
003FFF00001FFFE0
003FFF00001FFFE0
003FFF00001FFFC0
003FFF00001FFFC0
003FFF00001FFF80
003FFF00003FFF00
003FFF00003FFE00
003FFF00007FFE00
003FFF0000FFF800
003FFF0001FFF000
003FFF0007FFE000
003FFFFFFFFF8000
003FFFFFFFFC0000
003FFFFFFFE00000
003FFF0000000000
003FFF0000000000
003FFF0000000000
003FFF0000000000
003FFF0000000000
003FFF0000000000
003FFF0000000000
003FFF0000000000
003FFF0000000000
003FFF0000000000
003FFF0000000000
003FFF0000000000
003FFF0000000000
003FFF0000000000
003FFF0000000000
003FFF0000000000
003FFF0000000000
003FFF0000000000
003FFF0000000000
003FFF0000000000
003FFF0000000000
003FFF0000000000
003FFF0000000000
003FFF0000000000
003FFF0000000000
003FFF0000000000
003FFF0000000000
003FFF0000000000
003FFF0000000000
003FFF0000000000
007FFF8000000000
007FFF8000000000
FFFFFFFFF0000000
FFFFFFFFF0000000
FFFFFFFFF0000000
ENDCHAR
STARTCHAR Q
ENCODING 81
SWIDTH 712 0
DWIDTH 71 0
BBX 60 98 7 -25
BITMAP
0000007FC0000000
000003FFF8000000
00001FFFFF000000
00003FE07FC00000
0000FF001FE00000
0001FC0007F00000
0003F80003FC0000
000FF00001FE0000
001FF00001FF0000
001FE00000FF8000
003FE00000FF8000
007FC000007FC000
00FFC000007FE000
01FFC000007FF000
01FFC000003FF000
03FF8000003FF800
03FF8000003FFC00
07FF8000003FFC00
0FFF8000003FFE00
0FFF8000003FFE00
0FFF8000003FFF00
1FFF8000003FFF00
1FFF8000003FFF00
3FFF8000003FFF80
3FFF8000003FFF80
3FFF8000003FFF80
7FFF8000003FFFC0
7FFF8000003FFFC0
7FFF8000003FFFC0
7FFF8000003FFFC0
7FFF8000003FFFE0
FFFF8000003FFFE0
FFFF8000003FFFE0
FFFF8000003FFFE0
FFFF8000003FFFE0
FFFF8000003FFFE0
FFFF8000003FFFE0
FFFF8000003FFFE0
FFFF8000003FFFE0
FFFF8000003FFFE0
FFFF8000003FFFE0
FFFF8000003FFFE0
FFFF8000003FFFE0
FFFF8000003FFFE0
7FFF8000003FFFE0
7FFF8000003FFFC0
7FFF8000003FFFC0
7FFF8000003FFFC0
7FFF8000003FFFC0
3FFF8000003FFF80
3FFF8000003FFF80
3FFF8000003FFF80
1FFF8000003FFF00
1FFF8000003FFF00
1FFF8000003FFF00
0FFF8000003FFE00
0FFF8000003FFE00
07FF807F803FFC00
07FF80FFE03FFC00
03FF81FFF03FF800
01FFC3C1F83FF800
01FFC7807C7FF000
00FFC7003C7FE000
007FC7003E7FC000
003FEE003EFFC000
003FEE001EFF8000
001FFE001FFF0000
000FF6001FFE0000
0007FF001FFC00E0
0001FF001FF000E0
0000FF801FE000E0
00003FE0FFC000E0
00001FFFFF0000F0
000003FFFF0000F0
0000007FDF0000F0
000000001F0000F0
000000001F8000F0
000000001F8000F0
000000001F8000F0
000000001F8001E0
000000001FC001E0
000000001FC003E0
000000003FE003E0
000000003FF007E0
000000003FF80FE0
000000003FFFFFE0
000000001FFFFFE0
000000001FFFFFC0
000000001FFFFFC0
000000001FFFFFC0
000000001FFFFF80
000000000FFFFF80
000000000FFFFF00
0000000007FFFE00
0000000003FFFC00
0000000001FFF800
00000000007FF000
00000000001FC000
ENDCHAR
STARTCHAR R
ENCODING 82
SWIDTH 730 0
DWIDTH 73 0
BBX 65 76 6 -4
BITMAP
FFFFFFFFFE00000000
FFFFFFFFFFE0000000
FFFFFFFFFFFC000000
007FFF803FFF000000
007FFF800FFFC00000
003FFF0003FFE00000
003FFF0003FFF00000
003FFF0001FFF80000
003FFF0001FFFC0000
003FFF0000FFFC0000
003FFF0000FFFE0000
003FFF0000FFFE0000
003FFF0000FFFF0000
003FFF0000FFFF0000
003FFF0000FFFF0000
003FFF00007FFF0000
003FFF00007FFF8000
003FFF00007FFF8000
003FFF00007FFF8000
003FFF00007FFF8000
003FFF0000FFFF0000
003FFF0000FFFF0000
003FFF0000FFFF0000
003FFF0000FFFF0000
003FFF0000FFFE0000
003FFF0000FFFE0000
003FFF0001FFFC0000
003FFF0001FFFC0000
003FFF0001FFF80000
003FFF0003FFF00000
003FFF0007FFC00000
003FFF000FFF800000
003FFF003FFE000000
003FFFFFFFF0000000
003FFFFFFF00000000
003FFFFFFE00000000
003FFF007FC0000000
003FFF001FF8000000
003FFF0007FE000000
003FFF0007FF000000
003FFF0003FFC00000
003FFF0003FFE00000
003FFF0001FFE00000
003FFF0001FFF00000
003FFF0001FFF80000
003FFF0001FFF80000
003FFF0000FFF80000
003FFF0000FFFC0000
003FFF0000FFFC0000
003FFF0000FFFC0000
003FFF0000FFFC0000
003FFF0000FFFC0000
003FFF0000FFFC0000
003FFF0000FFFC0000
003FFF0000FFFC0000
003FFF0000FFFC0380
003FFF0000FFFC0380
003FFF0000FFFC0380
003FFF0000FFFC0380
003FFF0000FFFC0380
003FFF0000FFFC0380
003FFF0000FFFC0380
003FFF0000FFFC0380
003FFF0000FFFC0780
003FFF0000FFFC0780
003FFF0000FFFC0700
003FFF0000FFFC0700
003FFF00007FFE0F00
007FFF80007FFE0F00
007FFF80003FFF1E00
FFFFFFFFF03FFFFE00
FFFFFFFFF01FFFFC00
FFFFFFFFF00FFFF800
000000000007FFF000
000000000001FFE000
0000000000000E0000
ENDCHAR
STARTCHAR S
ENCODING 83
SWIDTH 620 0
DWIDTH 62 0
BBX 48 75 9 -2
BITMAP
0001FF000000
001FFFF000F0
007FFFFC00F0
01FF03FF80F0
03F0007FC0F0
07E0001FF1F0
0FC0000FFFF0
1F800003FFF0
1F800001FFF0
3F800000FFF0
3F8000007FF0
7F8000007FF0
7F8000003FF0
7F8000001FF0
7F8000000FF0
FFC000000FF0
FFC0000007F0
FFE0000007F0
FFF0000003F0
FFF8000001F0
FFFC000001F0
FFFE000001F0
FFFF800000F0
7FFFC00000F0
7FFFF00000F8
7FFFF8000078
3FFFFE000078
3FFFFF000000
3FFFFFC00000
1FFFFFE00000
0FFFFFF80000
07FFFFFC0000
07FFFFFF0000
03FFFFFF8000
01FFFFFFE000
007FFFFFF800
003FFFFFFC00
001FFFFFFF00
0007FFFFFF80
0003FFFFFFC0
0000FFFFFFE0
00003FFFFFF0
00001FFFFFF0
E00007FFFFF8
F00003FFFFFC
F00000FFFFFC
F000007FFFFC
F000001FFFFE
F800000FFFFE
F8000003FFFE
F8000001FFFF
FC0000007FFF
FC0000003FFF
FC0000000FFF
FE00000007FF
FE00000003FF
FF00000001FF
FF00000001FF
FF80000000FF
FF80000000FE
FFC0000000FE
FFE0000000FE
FFE0000000FC
FFF0000000FC
FFF8000001F8
FFFC000001F8
FFFE000003F0
FFFF000003E0
F87F800007C0
F83FC0000F80
700FF0003F00
7007FE03FE00
7001FFFFF800
70007FFFE000
000007FE0000
ENDCHAR
STARTCHAR T
ENCODING 84
SWIDTH 716 0
DWIDTH 72 0
BBX 62 73 6 -1
BITMAP
7FFFFFFFFFFFFFF8
7FFFFFFFFFFFFFF8
7FFFFFFFFFFFFFF8
7FFFC7FFFF0FFFF8
7FFE01FFFE03FFF8
7FFC01FFFC00FFF8
7FF801FFFC007FF8
7FF001FFFC003FF8
7FE001FFFC003FF8
7FC001FFFC001FF8
7FC001FFFC000FF8
FF8001FFFC000FF8
FF8001FFFC0007F8
FF0001FFFC0003F8
FF0001FFFC0003F8
FE0001FFFC0003F8
FE0001FFFC0001F8
FC0001FFFC0001F8
FC0001FFFC0000F8
FC0001FFFC0000F8
F80001FFFC0000F8
F80001FFFC0000F8
F80001FFFC000078
F80001FFFC000078
F00001FFFC000078
F00001FFFC000078
F00001FFFC00003C
F00001FFFC00003C
F00001FFFC00003C
E00001FFFC00003C
E00001FFFC00003C
000001FFFC000000
000001FFFC000000
000001FFFC000000
000001FFFC000000
000001FFFC000000
000001FFFC000000
000001FFFC000000
000001FFFC000000
000001FFFC000000
000001FFFC000000
000001FFFC000000
000001FFFC000000
000001FFFC000000
000001FFFC000000
000001FFFC000000
000001FFFC000000
000001FFFC000000
000001FFFC000000
000001FFFC000000
000001FFFC000000
000001FFFC000000
000001FFFC000000
000001FFFC000000
000001FFFC000000
000001FFFC000000
000001FFFC000000
000001FFFC000000
000001FFFC000000
000001FFFC000000
000001FFFC000000
000001FFFC000000
000001FFFC000000
000001FFFC000000
000001FFFC000000
000001FFFC000000
000001FFFC000000
000001FFFC000000
000001FFFC000000
000003FFFE000000
0007FFFFFFFF8000
0007FFFFFFFF8000
0007FFFFFFFF8000
ENDCHAR
STARTCHAR U
ENCODING 85
SWIDTH 794 0
DWIDTH 79 0
BBX 69 74 7 -2
BITMAP
FFFFFFFF000FFFFFF8
FFFFFFFF000FFFFFF8
FFFFFFFF000FFFFFF8
00FFFF000001FFFFC0
00FFFF0000003FFE00
007FFE0000000FFC00
007FFE00000007F800
007FFE00000003F000
007FFE00000003E000
007FFE00000003E000
007FFE00000001E000
007FFE00000001E000
007FFE00000001E000
007FFE00000001E000
007FFE00000001E000
007FFE00000001E000
007FFE00000001E000
007FFE00000001E000
007FFE00000001E000
007FFE00000001E000
007FFE00000001E000
007FFE00000001E000
007FFE00000001E000
007FFE00000001E000
007FFE00000001E000
007FFE00000001E000
007FFE00000001E000
007FFE00000001E000
007FFE00000001E000
007FFE00000001E000
007FFE00000001E000
007FFE00000001E000
007FFE00000001E000
007FFE00000001E000
007FFE00000001E000
007FFE00000001E000
007FFE00000001E000
007FFE00000001E000
007FFE00000001E000
007FFE00000001E000
007FFE00000001E000
007FFE00000001E000
007FFE00000001E000
007FFE00000001E000
007FFE00000001E000
007FFE00000001E000
007FFE00000001E000
007FFE00000001E000
007FFE00000001E000
007FFE00000001E000
007FFE00000001E000
007FFE00000001E000
007FFE00000001E000
007FFE00000001E000
007FFE00000001E000
007FFF00000003C000
003FFF00000003C000
003FFF00000003C000
003FFF00000003C000
001FFF000000078000
001FFF000000078000
000FFF8000000F8000
000FFF8000000F0000
0007FF8000001F0000
0007FFC000003E0000
0003FFE000007C0000
0001FFF00000F80000
0000FFF80001F00000
00007FFC0007E00000
00001FFF803FC00000
00000FFFFFFF000000
000003FFFFFE000000
0000007FFFF0000000
00000007FF00000000
ENDCHAR
STARTCHAR V
ENCODING 86
SWIDTH 772 0
DWIDTH 77 0
BBX 70 73 5 -1
BITMAP
FFFFFFFFC01FFFFFFC
FFFFFFFFC01FFFFFFC
FFFFFFFFC01FFFFFFC
03FFFFF000003FFF80
00FFFFC000000FFC00
007FFFC000000FF800
003FFFC0000007F000
003FFFC0000007E000
001FFFE0000003E000
001FFFE0000003C000
001FFFE0000007C000
000FFFF0000007C000
000FFFF00000078000
000FFFF00000078000
0007FFF80000078000
0007FFF800000F0000
0007FFF800000F0000
0003FFFC00000F0000
0003FFFC00001E0000
0003FFFC00001E0000
0001FFFE00001E0000
0001FFFE00003C0000
0000FFFE00003C0000
0000FFFF00003C0000
0000FFFF0000780000
00007FFF0000780000
00007FFF8000780000
00007FFF8000F00000
00003FFFC000F00000
00003FFFC000F00000
00003FFFC001E00000
00001FFFE001E00000
00001FFFE001E00000
00001FFFE003C00000
00000FFFF003C00000
00000FFFF003C00000
00000FFFF007800000
000007FFF807800000
000007FFF807800000
000003FFF80F000000
000003FFFC0F000000
000003FFFC0F000000
000001FFFC0F000000
000001FFFE1E000000
000001FFFE1E000000
000000FFFF1E000000
000000FFFF3C000000
000000FFFF3C000000
0000007FFFBC000000
0000007FFFF8000000
0000007FFFF8000000
0000003FFFF8000000
0000003FFFF0000000
0000003FFFF0000000
0000001FFFF0000000
0000001FFFE0000000
0000000FFFE0000000
0000000FFFE0000000
0000000FFFC0000000
00000007FFC0000000
00000007FFC0000000
00000007FF80000000
00000003FF80000000
00000003FF80000000
00000003FF00000000
00000001FF00000000
00000001FF00000000
00000001FE00000000
00000000FE00000000
00000000FE00000000
00000000FC00000000
000000007C00000000
000000007C00000000
ENDCHAR
STARTCHAR W
ENCODING 87
SWIDTH 1076 0
DWIDTH 108 0
BBX 102 73 4 -1
BITMAP
FFFFFFFF83FFFFFFFC1FFFFFFC
FFFFFFFF83FFFFFFFC1FFFFFFC
FFFFFFFF83FFFFFFFC1FFFFFFC
07FFFFF8003FFFFF00007FFF80
00FFFFF0000FFFFE00001FFC00
007FFFE00007FFFC00000FF800
003FFFE00003FFFC000007F000
001FFFE00001FFFC000007E000
001FFFE00001FFFE000007E000
000FFFF00001FFFE000007C000
000FFFF00000FFFE000007C000
000FFFF00000FFFF0000078000
0007FFF00000FFFF0000078000
0007FFF800007FFF0000078000
0007FFF800007FFF80000F0000
0003FFF800007FFF80000F0000
0003FFFC00007FFF80000F0000
0003FFFC00007FFFC0000F0000
0001FFFC00007FFFC0001E0000
0001FFFE0000FFFFC0001E0000
0001FFFE0000FFFFE0001E0000
0000FFFE0000FFFFE0003E0000
0000FFFF0001FFFFE0003C0000
0000FFFF0001EFFFF0003C0000
00007FFF0001EFFFF0003C0000
00007FFF8001E7FFF000780000
00007FFF8003C7FFF800780000
00003FFF8003C7FFF800780000
00003FFFC003C3FFF800F80000
00003FFFC007C3FFFC00F00000
00001FFFC00783FFFC00F00000
00001FFFE00781FFFC00F00000
00001FFFE00F81FFFC01E00000
00000FFFE00F01FFFE01E00000
00000FFFF00F01FFFE01E00000
00000FFFF00F00FFFE01E00000
000007FFF01E00FFFF03C00000
000007FFF81E00FFFF03C00000
000007FFF81E007FFF03C00000
000003FFF83E007FFF87C00000
000003FFFC3C007FFF87800000
000003FFFC3C003FFF87800000
000001FFFC3C003FFFC7800000
000001FFFE78003FFFCF000000
000001FFFE78001FFFCF000000
000000FFFE78001FFFEF000000
000000FFFFF8001FFFEF000000
000000FFFFF0000FFFFE000000
0000007FFFF0000FFFFE000000
0000007FFFF0000FFFFE000000
0000007FFFE00007FFFC000000
0000003FFFE00007FFFC000000
0000003FFFE00007FFFC000000
0000003FFFE00003FFFC000000
0000003FFFC00003FFF8000000
0000001FFFC00003FFF8000000
0000001FFFC00001FFF8000000
0000001FFF800001FFF8000000
0000000FFF800001FFF0000000
0000000FFF800000FFF0000000
0000000FFF000000FFF0000000
00000007FF000000FFE0000000
00000007FF0000007FE0000000
00000007FF0000007FE0000000
00000003FE0000007FE0000000
00000003FE0000003FC0000000
00000003FE0000003FC0000000
00000001FC0000003FC0000000
00000001FC0000001F80000000
00000001FC0000001F80000000
00000000FC0000001F80000000
00000000F80000001F80000000
00000000F80000000F00000000
ENDCHAR
STARTCHAR X
ENCODING 88
SWIDTH 750 0
DWIDTH 75 0
BBX 68 73 5 -1
BITMAP
7FFFFFFF80FFFFFF80
7FFFFFFF80FFFFFF80
7FFFFFFF80FFFFFF80
07FFFFF8000FFFE000
00FFFFF00003FF8000
007FFFF00003FE0000
003FFFF00001FC0000
001FFFF00001FC0000
000FFFF80001F80000
000FFFF80001F00000
0007FFFC0001F00000
0007FFFC0003E00000
0003FFFE0003C00000
0003FFFE0007C00000
0001FFFF0007800000
0001FFFF000F800000
0000FFFF801F000000
0000FFFF801E000000
00007FFFC03E000000
00007FFFC07C000000
00003FFFE078000000
00001FFFE0F8000000
00001FFFF0F0000000
00000FFFF1E0000000
00000FFFFBE0000000
000007FFFFC0000000
000007FFFF80000000
000003FFFF80000000
000003FFFF00000000
000001FFFF00000000
000001FFFF00000000
000000FFFF80000000
000000FFFF80000000
0000007FFFC0000000
0000007FFFC0000000
0000003FFFE0000000
0000003FFFE0000000
0000001FFFF0000000
0000001FFFF0000000
0000000FFFF8000000
0000000FFFF8000000
0000001FFFFC000000
0000001FFFFC000000
0000003FFFFE000000
0000007DFFFF000000
00000079FFFF000000
000000F8FFFF800000
000001F0FFFF800000
000001E07FFFC00000
000003E07FFFC00000
000003C03FFFE00000
000007803FFFE00000
00000F801FFFF00000
00000F001FFFF00000
00001E000FFFF80000
00003E000FFFF80000
00003C0007FFFC0000
00007C0007FFFC0000
0000F80003FFFE0000
0000F00003FFFE0000
0001F00001FFFF0000
0003E00000FFFF0000
0003E00000FFFF8000
0007C000007FFF8000
000FC000007FFFC000
000FC000007FFFE000
001FC000007FFFE000
003FE000007FFFF000
00FFE000007FFFFC00
07FFF00000FFFFFF00
FFFFFFC01FFFFFFFF0
FFFFFFC01FFFFFFFF0
FFFFFFC01FFFFFFFF0
ENDCHAR
STARTCHAR Y
ENCODING 89
SWIDTH 736 0
DWIDTH 74 0
BBX 66 73 5 -1
BITMAP
FFFFFFFE003FFFFFC0
FFFFFFFE003FFFFFC0
FFFFFFFE003FFFFFC0
07FFFFE00003FFF800
01FFFFC00000FFE000
00FFFFC000007FC000
00FFFF8000007F8000
007FFF8000003F0000
007FFFC000003E0000
003FFFC000003E0000
003FFFE000003C0000
001FFFE000003C0000
001FFFE000007C0000
000FFFF00000780000
000FFFF00000780000
000FFFF80000F00000
0007FFF80000F00000
0007FFFC0000F00000
0003FFFC0001E00000
0003FFFE0001E00000
0001FFFE0003C00000
0001FFFE0003C00000
0000FFFF0003C00000
0000FFFF0007800000
00007FFF8007800000
00007FFF800F000000
00007FFFC00F000000
00003FFFC00F000000
00003FFFE01E000000
00001FFFE01E000000
00001FFFE03C000000
00000FFFF03C000000
00000FFFF03C000000
000007FFF878000000
000007FFF878000000
000003FFFC70000000
000003FFFCF0000000
000003FFFEF0000000
000001FFFFE0000000
000001FFFFE0000000
000000FFFFC0000000
000000FFFFC0000000
0000007FFFC0000000
0000007FFF80000000
0000003FFF80000000
0000003FFF80000000
0000003FFF80000000
0000003FFF80000000
0000003FFF80000000
0000003FFF80000000
0000003FFF80000000
0000003FFF80000000
0000003FFF80000000
0000003FFF80000000
0000003FFF80000000
0000003FFF80000000
0000003FFF80000000
0000003FFF80000000
0000003FFF80000000
0000003FFF80000000
0000003FFF80000000
0000003FFF80000000
0000003FFF80000000
0000003FFF80000000
0000003FFF80000000
0000003FFF80000000
0000003FFF80000000
0000003FFF80000000
0000003FFF80000000
0000007FFFC0000000
00007FFFFFFFC00000
00007FFFFFFFC00000
00007FFFFFFFC00000
ENDCHAR
STARTCHAR Z
ENCODING 90
SWIDTH 652 0
DWIDTH 65 0
BBX 54 73 7 -1
BITMAP
1FFFFFFFFFFFF0
1FFFFFFFFFFFF0
1FFFFFFFFFFFF0
1FFFF0001FFFF0
1FFFC0003FFFE0
1FFF00003FFFE0
1FFE00007FFFC0
1FFC00007FFFC0
1FF80000FFFF80
1FF00000FFFF80
1FE00001FFFF00
3FC00001FFFF00
3FC00003FFFE00
3F800003FFFC00
3F800007FFFC00
3F000007FFF800
3F00000FFFF800
3E00001FFFF000
3E00001FFFF000
3E00003FFFE000
3C00003FFFE000
3C00007FFFC000
3C00007FFFC000
380000FFFF8000
380000FFFF8000
380001FFFF0000
000001FFFF0000
000003FFFE0000
000003FFFE0000
000007FFFC0000
000007FFF80000
00000FFFF80000
00000FFFF00000
00001FFFF00000
00003FFFE00000
00003FFFE00000
00007FFFC00000
00007FFFC00000
0000FFFF800000
0000FFFF800000
0001FFFF000000
0001FFFF000000
0003FFFE000000
0003FFFE000000
0007FFFC00003C
0007FFFC00003C
000FFFF8000038
000FFFF0000038
001FFFF0000078
001FFFE0000078
003FFFE0000078
007FFFC0000078
007FFFC00000F8
00FFFF800000F8
00FFFF800001F8
01FFFF000001F8
01FFFF000001F8
03FFFE000003F8
03FFFE000007F8
07FFFC000007F8
07FFFC00000FF8
0FFFF800001FF8
0FFFF800001FF8
1FFFF000003FF8
1FFFF000007FF0
3FFFE00000FFF0
3FFFC00001FFF0
7FFFC00003FFF0
FFFF80000FFFF0
FFFF80007FFFF0
FFFFFFFFFFFFF0
FFFFFFFFFFFFF0
FFFFFFFFFFFFF0
ENDCHAR
STARTCHAR a
ENCODING 97
SWIDTH 508 0
DWIDTH 51 0
BBX 44 50 5 -1
BITMAP
0007FC000000
003FFFC00000
00FF7FF00000
01F00FF80000
03C007FE0000
07C003FF0000
0F8001FF8000
1F8001FF8000
1FC001FFC000
3FC000FFC000
3FF000FFE000
3FF800FFE000
3FF800FFE000
3FFC00FFE000
3FFC00FFE000
3FFC00FFE000
1FF800FFE000
1FF800FFE000
0FF000FFE000
018003FFE000
00001FFFE000
00007FFFE000
0003FCFFE000
000FE0FFE000
003F80FFE000
00FE00FFE000
03FC00FFE000
07FC00FFE000
0FF800FFE000
1FF800FFE000
3FF800FFE000
7FF000FFE000
7FF000FFE000
FFF000FFE000
FFF000FFE000
FFF000FFE070
FFF000FFE070
FFF000FFE070
FFF000FFE070
FFF000FFE070
FFF000FFE0E0
FFF000FFE0E0
FFF801FFE0E0
FFF801FFF0E0
7FFC03FFF1C0
3FFE0E7FFFC0
3FFFFC7FFF80
0FFFF83FFF00
07FFE01FFE00
00FF8003F800
ENDCHAR
STARTCHAR b
ENCODING 98
SWIDTH 528 0
DWIDTH 53 0
BBX 47 73 1 -1
BITMAP
FFFFE0000000
FFFFE0000000
03FFE0000000
01FFE0000000
01FFE0000000
01FFE0000000
01FFE0000000
01FFE0000000
01FFE0000000
01FFE0000000
01FFE0000000
01FFE0000000
01FFE0000000
01FFE0000000
01FFE0000000
01FFE0000000
01FFE0000000
01FFE0000000
01FFE0000000
01FFE0000000
01FFE0000000
01FFE0000000
01FFE0000000
01FFE03F8000
01FFE0FFF000
01FFE1FFF800
01FFE3C7FE00
01FFE783FF00
01FFEF01FF00
01FFEE00FF80
01FFFE00FFC0
01FFFC00FFE0
01FFFC007FE0
01FFF8007FF0
01FFF8007FF0
01FFF8007FF8
01FFF0003FF8
01FFF0003FF8
01FFF0003FFC
01FFF0003FFC
01FFE0003FFC
01FFE0003FFC
01FFE0003FFE
01FFE0003FFE
01FFE0003FFE
01FFE0003FFE
01FFE0003FFE
01FFE0003FFE
01FFE0003FFE
01FFE0003FFE
01FFE0003FFE
01FFE0003FFE
01FFE0003FFE
01FFE0003FFE
01FFE0003FFC
01FFE0003FFC
01FFF0003FFC
01FFF0003FFC
01FFF0003FF8
01FFF0003FF8
01FFF8007FF8
01FFF8007FF0
01FFF8007FF0
01FFFC007FE0
01FCFC00FFC0
01F87C00FFC0
01F03E00FF80
01F01F01FF00
01E01F83FE00
01E00FC7FC00
01C007FFF800
01C003FFE000
0180003F8000
ENDCHAR
STARTCHAR c
ENCODING 99
SWIDTH 468 0
DWIDTH 47 0
BBX 37 50 5 -1
BITMAP
0000FF8000
0007FFF000
001FFBFC00
003FC03E00
00FF801F00
01FF000F80
03FF000F80
07FE000FC0
07FE000FC0
0FFC000FE0
1FFC001FE0
1FFC003FE0
3FFC007FE0
3FF800FFE0
3FF800FFE0
7FF801FFE0
7FF801FFE0
7FF801FFE0
FFF801FFC0
FFF801FF80
FFF800FF80
FFF8007E00
FFF8000000
FFF8000000
FFF8000000
FFF8000000
FFF8000000
FFF8000000
FFF8000000
FFF8000000
FFF8000000
FFF8000000
7FF8000000
7FF8000038
7FF8000038
3FF8000038
3FF8000038
3FF8000030
1FFC000070
1FFC000070
0FFC0000E0
07FE0000E0
03FE0001C0
03FF0003C0
01FF800780
007FC00F00
003FF03E00
001FFFFC00
0007FFF000
00007F8000
ENDCHAR
STARTCHAR d
ENCODING 100
SWIDTH 538 0
DWIDTH 54 0
BBX 47 73 5 -1
BITMAP
000007FFFE00
000007FFFE00
0000003FFE00
0000000FFE00
0000000FFE00
0000000FFE00
0000000FFE00
0000000FFE00
0000000FFE00
0000000FFE00
0000000FFE00
0000000FFE00
0000000FFE00
0000000FFE00
0000000FFE00
0000000FFE00
0000000FFE00
0000000FFE00
0000000FFE00
0000000FFE00
0000000FFE00
0000000FFE00
0000000FFE00
0003F00FFE00
001FFC0FFE00
007FFF0FFE00
00FFCF8FFE00
01FF03CFFE00
03FF01CFFE00
03FE00EFFE00
07FE00FFFE00
0FFC007FFE00
0FFC007FFE00
1FFC003FFE00
1FFC003FFE00
3FF8003FFE00
3FF8003FFE00
7FF8001FFE00
7FF8001FFE00
7FF8001FFE00
7FF8001FFE00
FFF8001FFE00
FFF8001FFE00
FFF8000FFE00
FFF8000FFE00
FFF8000FFE00
FFF8000FFE00
FFF8000FFE00
FFF8000FFE00
FFF8000FFE00
FFF8000FFE00
FFF8000FFE00
FFF8000FFE00
FFF8000FFE00
FFF8001FFE00
FFF8001FFE00
7FF8001FFE00
7FF8001FFE00
7FF8001FFE00
3FF8003FFE00
3FF8003FFE00
3FFC003FFE00
1FFC003FFE00
1FFC007FFE00
0FFC007FFE00
0FFE00FFFE00
07FE00EFFE00
03FF01CFFE00
03FF01CFFE00
01FFC78FFE00
00BFFF0FFF80
000FFE0FFFFE
0003F80FFFFE
ENDCHAR
STARTCHAR e
ENCODING 101
SWIDTH 472 0
DWIDTH 47 0
BBX 37 50 5 -1
BITMAP
0000FF0000
0007FFE000
001FFFF000
007F03FC00
00FE01FE00
01FE01FF00
03FC00FF00
07FC00FF80
07FC00FFC0
0FF800FFC0
1FF8007FE0
1FF8007FE0
3FF8007FE0
3FF8007FF0
3FF8007FF0
7FF8007FF0
7FF8007FF0
7FF8007FF8
FFF8007FF8
FFF8007FF8
FFF8007FF8
FFF8007FF8
FFF8007FF8
FFFFFFFFF8
FFFFFFFFF8
FFFFFFFFF8
FFF8000000
FFF8000000
FFF8000000
FFF8000000
FFF8000000
FFF8000000
7FF8000018
7FF8000038
7FF8000038
3FF8000038
3FF8000038
3FF8000030
1FFC000070
0FFC000070
0FFC0000E0
07FE0000E0
03FE0001C0
03FF0003C0
01FF800780
007FC00F00
003FF03E00
001FFFFC00
0007FFF000
00007F8000
ENDCHAR
STARTCHAR f
ENCODING 102
SWIDTH 350 0
DWIDTH 35 0
BBX 38 73 3 -1
BITMAP
000003F800
00001FFF00
0000FF3F80
0001FC0FE0
0003F807E0
0007F807F0
000FF00FF8
001FF00FF8
003FE01FF8
003FE03FF8
007FE07FFC
007FE07FFC
00FFE0FFFC
00FFE0FFF8
00FFE0FFF8
01FFE07FF0
01FFE07FE0
01FFE03FC0
01FFE00700
01FFE00000
01FFE00000
01FFE00000
01FFE00000
01FFE00000
FFFFFFC000
FFFFFFC000
FFFFFFC000
01FFE00000
01FFE00000
01FFE00000
01FFE00000
01FFE00000
01FFE00000
01FFE00000
01FFE00000
01FFE00000
01FFE00000
01FFE00000
01FFE00000
01FFE00000
01FFE00000
01FFE00000
01FFE00000
01FFE00000
01FFE00000
01FFE00000
01FFE00000
01FFE00000
01FFE00000
01FFE00000
01FFE00000
01FFE00000
01FFE00000
01FFE00000
01FFE00000
01FFE00000
01FFE00000
01FFE00000
01FFE00000
01FFE00000
01FFE00000
01FFE00000
01FFE00000
01FFE00000
01FFE00000
01FFE00000
01FFE00000
01FFE00000
01FFE00000
01FFE00000
03FFF00000
FFFFFFC000
FFFFFFC000
ENDCHAR
STARTCHAR g
ENCODING 103
SWIDTH 554 0
DWIDTH 55 0
BBX 50 74 4 -25
BITMAP
00007FC000FC00
0007FFF801FF00
001FFBFE03FF80
003FC07F860F80
007F803FCC0FC0
01FF803FF81FC0
01FF001FF81FC0
03FF001FF83FC0
07FF001FFC7FC0
07FF001FFC7FC0
0FFF001FFE7F80
0FFF001FFE7F80
0FFE001FFE7F00
1FFE000FFF3E00
1FFE000FFF0000
1FFE000FFF0000
1FFE000FFF0000
1FFE000FFF0000
1FFE000FFF0000
0FFE001FFE0000
0FFF001FFE0000
0FFF001FFE0000
07FF001FFC0000
07FF001FFC0000
03FF001FF80000
01FF803FF00000
00FF803FE00000
007FC07FC00000
003FC07F800000
001FFFFE000000
0007FFF8000000
003FFFC0000000
00FC0000000000
03C00000000000
07800000000000
0F000000000000
1F000000000000
1F000000000000
3F000000000000
3F000000000000
3FC00000000000
3FFFFFFF800000
3FFFFFFFF80000
3FFFFFFFFE0000
3FFFFFFFFF0000
3FFFFFFFFF8000
1FFFFFFFFFC000
1FFFFFFFFFE000
0FFFFFFFFFF000
03FFFFFFFFF000
00FFFFFFFFF000
00FFFFFFFFF800
03FFE01FFFF800
0FF000007FF800
1F8000001FF800
3E00000007F800
3C00000007F800
7800000003F800
7000000003F800
F000000003F000
F000000003F000
F000000003F000
F000000003E000
F000000007E000
7800000007C000
780000000F8000
3C0000001F8000
3E0000003F0000
1F800000FE0000
07F00007F80000
03FF007FF00000
00FFFFFFC00000
001FFFFF000000
0000FFF0000000
ENDCHAR
STARTCHAR h
ENCODING 104
SWIDTH 560 0
DWIDTH 56 0
BBX 50 73 3 -1
BITMAP
FFFFC000000000
FFFFC000000000
07FFC000000000
01FFC000000000
01FFC000000000
01FFC000000000
01FFC000000000
01FFC000000000
01FFC000000000
01FFC000000000
01FFC000000000
01FFC000000000
01FFC000000000
01FFC000000000
01FFC000000000
01FFC000000000
01FFC000000000
01FFC000000000
01FFC000000000
01FFC000000000
01FFC000000000
01FFC000000000
01FFC000000000
01FFC00FE00000
01FFC03FFC0000
01FFC0FFFE0000
01FFC1E7FF0000
01FFC381FF8000
01FFC300FFC000
01FFC600FFE000
01FFCE00FFE000
01FFCC007FE000
01FFDC007FF000
01FFF8007FF000
01FFF8007FF000
01FFF0007FF000
01FFF0007FF000
01FFF0007FF000
01FFE0007FF000
01FFE0007FF000
01FFE0007FF000
01FFE0007FF000
01FFE0007FF000
01FFE0007FF000
01FFC0007FF000
01FFC0007FF000
01FFC0007FF000
01FFC0007FF000
01FFC0007FF000
01FFC0007FF000
01FFC0007FF000
01FFC0007FF000
01FFC0007FF000
01FFC0007FF000
01FFC0007FF000
01FFC0007FF000
01FFC0007FF000
01FFC0007FF000
01FFC0007FF000
01FFC0007FF000
01FFC0007FF000
01FFC0007FF000
01FFC0007FF000
01FFC0007FF000
01FFC0007FF000
01FFC0007FF000
01FFC0007FF000
01FFC0007FF000
01FFC0007FF000
01FFC0007FF000
03FFF000FFFC00
FFFFFE0FFFFFC0
FFFFFE0FFFFFC0
ENDCHAR
STARTCHAR i
ENCODING 105
SWIDTH 296 0
DWIDTH 30 0
BBX 22 73 4 -1
BITMAP
00FC00
03FE00
07FF00
0FFF80
0FFFC0
0FFFC0
1FFFC0
1FFFC0
1FFFC0
0FFFC0
0FFFC0
07FF80
07FF00
01FE00
007800
000000
000000
000000
000000
000000
000000
000000
000000
000000
FFFF80
FFFF80
0FFF80
07FF80
07FF80
07FF80
07FF80
07FF80
07FF80
07FF80
07FF80
07FF80
07FF80
07FF80
07FF80
07FF80
07FF80
07FF80
07FF80
07FF80
07FF80
07FF80
07FF80
07FF80
07FF80
07FF80
07FF80
07FF80
07FF80
07FF80
07FF80
07FF80
07FF80
07FF80
07FF80
07FF80
07FF80
07FF80
07FF80
07FF80
07FF80
07FF80
07FF80
07FF80
07FF80
07FF80
0FFFC0
FFFFFC
FFFFFC
ENDCHAR
STARTCHAR j
ENCODING 106
SWIDTH 320 0
DWIDTH 32 0
BBX 30 97 -5 -25
BITMAP
00000FC0
00003FE0
00007FF0
0000FFF8
0000FFFC
0000FFFC
0001FFFC
0001FFFC
0001FFFC
0000FFFC
0000FFFC
00007FF8
00007FF0
00001FE0
00000780
00000000
00000000
00000000
00000000
00000000
00000000
00000000
00000000
00000000
003FFFF8
003FFFF8
0000FFF8
00007FF8
00007FF8
00007FF8
00007FF8
00007FF8
00007FF8
00007FF8
00007FF8
00007FF8
00007FF8
00007FF8
00007FF8
00007FF8
00007FF8
00007FF8
00007FF8
00007FF8
00007FF8
00007FF8
00007FF8
00007FF8
00007FF8
00007FF8
00007FF8
00007FF8
00007FF8
00007FF8
00007FF8
00007FF8
00007FF8
00007FF8
00007FF8
00007FF8
00007FF8
00007FF8
00007FF8
00007FF8
00007FF8
00007FF8
00007FF8
00007FF8
00007FF8
00007FF8
00007FF8
00007FF8
00007FF8
00007FF8
00007FF8
00007FF8
00007FF8
00007FF8
0FE07FF8
3FF07FF0
7FF87FF0
7FF87FF0
FFF87FF0
FFF87FF0
FFF87FF0
FFF87FE0
FFF07FE0
FFE07FE0
FFC07FC0
FF80FFC0
7F80FF80
7F80FF00
3F81FE00
1F81FC00
0FE7F800
03FFE000
007F0000
ENDCHAR
STARTCHAR k
ENCODING 107
SWIDTH 560 0
DWIDTH 56 0
BBX 51 73 3 -1
BITMAP
FFFFC000000000
FFFFC000000000
03FFC000000000
01FFC000000000
01FFC000000000
01FFC000000000
01FFC000000000
01FFC000000000
01FFC000000000
01FFC000000000
01FFC000000000
01FFC000000000
01FFC000000000
01FFC000000000
01FFC000000000
01FFC000000000
01FFC000000000
01FFC000000000
01FFC000000000
01FFC000000000
01FFC000000000
01FFC000000000
01FFC000000000
01FFC000000000
01FFC00FFFFE00
01FFC00FFFFE00
01FFC00FFFFE00
01FFC0007F8000
01FFC0007F0000
01FFC0007E0000
01FFC0007C0000
01FFC000780000
01FFC000F00000
01FFC000E00000
01FFC001E00000
01FFC003C00000
01FFC003800000
01FFC007000000
01FFC00E000000
01FFC01E000000
01FFC03C000000
01FFC03C000000
01FFC07E000000
01FFC0FE000000
01FFC1FF000000
01FFC1FF000000
01FFC3FF800000
01FFC7FFC00000
01FFCFFFC00000
01FFCFFFE00000
01FFDDFFE00000
01FFF8FFF00000
01FFF8FFF00000
01FFF07FF80000
01FFE07FFC0000
01FFC03FFC0000
01FFC01FFE0000
01FFC01FFE0000
01FFC00FFF0000
01FFC00FFF8000
01FFC007FF8000
01FFC003FFC000
01FFC003FFC000
01FFC001FFE000
01FFC001FFF000
01FFC000FFF000
01FFC000FFF800
01FFC000FFF800
01FFC000FFFC00
01FFC000FFFE00
03FFF003FFFF00
FFFFFF0FFFFFE0
FFFFFF0FFFFFE0
ENDCHAR
STARTCHAR l
ENCODING 108
SWIDTH 308 0
DWIDTH 31 0
BBX 26 73 3 -1
BITMAP
FFFFC000
FFFFC000
07FFC000
01FFC000
01FFC000
01FFC000
01FFC000
01FFC000
01FFC000
01FFC000
01FFC000
01FFC000
01FFC000
01FFC000
01FFC000
01FFC000
01FFC000
01FFC000
01FFC000
01FFC000
01FFC000
01FFC000
01FFC000
01FFC000
01FFC000
01FFC000
01FFC000
01FFC000
01FFC000
01FFC000
01FFC000
01FFC000
01FFC000
01FFC000
01FFC000
01FFC000
01FFC000
01FFC000
01FFC000
01FFC000
01FFC000
01FFC000
01FFC000
01FFC000
01FFC000
01FFC000
01FFC000
01FFC000
01FFC000
01FFC000
01FFC000
01FFC000
01FFC000
01FFC000
01FFC000
01FFC000
01FFC000
01FFC000
01FFC000
01FFC000
01FFC000
01FFC000
01FFC000
01FFC000
01FFC000
01FFC000
01FFC000
01FFC000
01FFC000
01FFC000
03FFF000
FFFFFFC0
FFFFFFC0
ENDCHAR
STARTCHAR m
ENCODING 109
SWIDTH 800 0
DWIDTH 80 0
BBX 73 50 4 -1
BITMAP
0000001FC0001FC00000
FFFF807FF8007FF80000
FFFF81FFFC00FFFC0000
0FFF838FFE01CFFE0000
07FF8703FF0303FF0000
07FF8603FF0601FF8000
07FF8C03FF8601FFC000
07FF9801FF8C01FFC000
07FF9801FF8800FFC000
07FFB001FFD800FFE000
07FFB001FFD800FFE000
07FFE001FFF000FFE000
07FFE001FFF000FFE000
07FFE001FFF000FFE000
07FFC001FFE000FFE000
07FFC001FFE000FFE000
07FFC001FFE000FFE000
07FFC001FFE000FFE000
07FF8001FFE000FFE000
07FF8001FFC000FFE000
07FF8001FFC000FFE000
07FF8001FFC000FFE000
07FF8001FFC000FFE000
07FF8001FFC000FFE000
07FF8001FFC000FFE000
07FF8001FFC000FFE000
07FF8001FFC000FFE000
07FF8001FFC000FFE000
07FF8001FFC000FFE000
07FF8001FFC000FFE000
07FF8001FFC000FFE000
07FF8001FFC000FFE000
07FF8001FFC000FFE000
07FF8001FFC000FFE000
07FF8001FFC000FFE000
07FF8001FFC000FFE000
07FF8001FFC000FFE000
07FF8001FFC000FFE000
07FF8001FFC000FFE000
07FF8001FFC000FFE000
07FF8001FFC000FFE000
07FF8001FFC000FFE000
07FF8001FFC000FFE000
07FF8001FFC000FFE000
07FF8001FFC000FFE000
07FF8001FFC000FFE000
07FF8001FFC000FFE000
0FFFC007FFE001FFF800
FFFFFC3FFFFE1FFFFF80
FFFFFC3FFFFE1FFFFF80
ENDCHAR
STARTCHAR n
ENCODING 110
SWIDTH 556 0
DWIDTH 56 0
BBX 48 50 4 -1
BITMAP
0000001FC000
FFFF80FFF000
FFFF81FFFC00
0FFF838FFE00
07FF8703FF00
07FF8E03FF80
07FF9C01FF80
07FF9801FFC0
07FFB801FFC0
07FFB001FFC0
07FFF001FFE0
07FFE001FFE0
07FFE001FFE0
07FFE001FFE0
07FFC001FFE0
07FFC001FFE0
07FFC001FFE0
07FFC001FFE0
07FF8001FFE0
07FF8001FFE0
07FF8001FFE0
07FF8001FFE0
07FF8001FFE0
07FF8001FFE0
07FF8001FFE0
07FF8001FFE0
07FF8001FFE0
07FF8001FFE0
07FF8001FFE0
07FF8001FFE0
07FF8001FFE0
07FF8001FFE0
07FF8001FFE0
07FF8001FFE0
07FF8001FFE0
07FF8001FFE0
07FF8001FFE0
07FF8001FFE0
07FF8001FFE0
07FF8001FFE0
07FF8001FFE0
07FF8001FFE0
07FF8001FFE0
07FF8001FFE0
07FF8001FFE0
07FF8001FFE0
07FF8001FFE0
0FFFC003FFF0
FFFFFC1FFFFF
FFFFFC1FFFFF
ENDCHAR
STARTCHAR o
ENCODING 111
SWIDTH 504 0
DWIDTH 50 0
BBX 41 50 5 -1
BITMAP
0000FF000000
0007FFE00000
001FF7F80000
003F80FE0000
00FF007F0000
01FE007F8000
03FE003FC000
03FC003FE000
07FC003FF000
0FFC001FF000
1FFC001FF800
1FF8001FF800
3FF8001FFC00
3FF8001FFC00
3FF8001FFE00
7FF8001FFE00
7FF8001FFE00
7FF8000FFF00
FFF8000FFF00
FFF8000FFF00
FFF8000FFF00
FFF8000FFF00
FFF8000FFF80
FFF8000FFF80
FFF8000FFF80
FFF8000FFF80
FFF8000FFF80
FFF8000FFF00
FFF8000FFF00
FFF8000FFF00
FFF8000FFF00
FFF8000FFF00
7FF8000FFF00
7FF8000FFE00
7FF8001FFE00
3FF8001FFE00
3FF8001FFC00
3FF8001FFC00
1FF8001FF800
1FFC001FF800
0FFC001FF000
07FC003FF000
03FC003FE000
03FE003FC000
01FE007F8000
00FF007F0000
003F80FE0000
001FF7F80000
0007FFE00000
0000FF000000
ENDCHAR
STARTCHAR p
ENCODING 112
SWIDTH 544 0
DWIDTH 54 0
BBX 47 71 3 -22
BITMAP
0000003F0000
FFFFE0FFE000
FFFFE3FFF000
03FFE7C7FC00
01FFE703FE00
01FFEE01FF00
01FFFE01FF80
01FFFC00FF80
01FFF800FFC0
01FFF800FFE0
01FFF8007FE0
01FFF0007FF0
01FFF0007FF0
01FFF0007FF8
01FFF0007FF8
01FFE0007FF8
01FFE0007FF8
01FFE0003FFC
01FFE0003FFC
01FFE0003FFC
01FFE0003FFC
01FFE0003FFC
01FFE0003FFC
01FFE0003FFE
01FFE0003FFE
01FFE0003FFE
01FFE0003FFE
01FFE0003FFC
01FFE0003FFC
01FFE0003FFC
01FFE0003FFC
01FFE0003FFC
01FFE0003FFC
01FFE0007FFC
01FFE0007FF8
01FFF0007FF8
01FFF0007FF8
01FFF0007FF0
01FFF0007FF0
01FFF8007FE0
01FFF800FFE0
01FFFC00FFC0
01FFFC00FFC0
01FFFE01FF80
01FFEE01FF00
01FFE703FE00
01FFE3C7FC00
01FFE1FFF800
01FFE0FFE000
01FFE03F8000
01FFE0000000
01FFE0000000
01FFE0000000
01FFE0000000
01FFE0000000
01FFE0000000
01FFE0000000
01FFE0000000
01FFE0000000
01FFE0000000
01FFE0000000
01FFE0000000
01FFE0000000
01FFE0000000
01FFE0000000
01FFE0000000
01FFE0000000
01FFE0000000
01FFE0000000
FFFFFFC00000
FFFFFFC00000
ENDCHAR
STARTCHAR q
ENCODING 113
SWIDTH 524 0
DWIDTH 52 0
BBX 45 71 5 -22
BITMAP
0003F8000000
001FFF000200
003FFF800600
007FC7C00600
01FF03E00E00
01FF01F00E00
03FE00F01E00
07FE00F81E00
0FFC007C3E00
0FFC007E7E00
1FFC003FFE00
1FFC003FFE00
3FF8003FFE00
3FF8003FFE00
7FF8001FFE00
7FF8001FFE00
7FF8001FFE00
7FF8001FFE00
FFF8001FFE00
FFF8000FFE00
FFF8000FFE00
FFF8000FFE00
FFF8000FFE00
FFF8000FFE00
FFF8000FFE00
FFF8000FFE00
FFF8000FFE00
FFF8000FFE00
FFF8000FFE00
FFF8000FFE00
FFF8000FFE00
FFF8001FFE00
7FF8001FFE00
7FF8001FFE00
7FF8001FFE00
7FF8001FFE00
3FF8001FFE00
3FF8003FFE00
1FFC003FFE00
1FFC003FFE00
0FFC007FFE00
0FFC007FFE00
07FE00FFFE00
07FE00EFFE00
03FF01CFFE00
01FF03CFFE00
00FFCF8FFE00
007FFF0FFE00
001FFE0FFE00
0003F00FFE00
0000000FFE00
0000000FFE00
0000000FFE00
0000000FFE00
0000000FFE00
0000000FFE00
0000000FFE00
0000000FFE00
0000000FFE00
0000000FFE00
0000000FFE00
0000000FFE00
0000000FFE00
0000000FFE00
0000000FFE00
0000000FFE00
0000000FFE00
0000000FFE00
0000000FFF00
000007FFFFF8
000007FFFFF8
ENDCHAR
STARTCHAR r
ENCODING 114
SWIDTH 434 0
DWIDTH 43 0
BBX 37 50 4 -1
BITMAP
0000003E00
FFFF80FF80
FFFF81FFC0
0FFF83FFE0
07FF871FF0
07FF8E1FF0
07FF8C3FF0
07FF987FF8
07FF987FF8
07FFB0FFF8
07FFB1FFF8
07FFE1FFF8
07FFE1FFF0
07FFE1FFF0
07FFC1FFF0
07FFC0FFE0
07FFC0FFC0
07FFC03F80
07FFC00E00
07FF800000
07FF800000
07FF800000
07FF800000
07FF800000
07FF800000
07FF800000
07FF800000
07FF800000
07FF800000
07FF800000
07FF800000
07FF800000
07FF800000
07FF800000
07FF800000
07FF800000
07FF800000
07FF800000
07FF800000
07FF800000
07FF800000
07FF800000
07FF800000
07FF800000
07FF800000
07FF800000
07FF800000
0FFFC00000
FFFFFC0000
FFFFFC0000
ENDCHAR
STARTCHAR s
ENCODING 115
SWIDTH 430 0
DWIDTH 43 0
BBX 34 50 6 -1
BITMAP
007F800000
01FFF00C00
07F3FC0C00
0F807E0C00
1F001FFC00
3E000FFC00
7E0007FC00
7E0003FC00
7E0001FC00
FE0000FC00
FE00007C00
FF00007C00
FF00003C00
FF80003C00
FFC0001C00
FFE0001C00
FFF8000C00
FFFC000000
7FFF000000
7FFFC00000
7FFFF00000
3FFFFC0000
1FFFFF0000
0FFFFFC000
07FFFFE000
03FFFFF800
01FFFFFC00
007FFFFE00
003FFFFE00
000FFFFF00
C003FFFF80
E000FFFF80
E0003FFF80
F0000FFFC0
F80003FFC0
F80001FFC0
FC00007FC0
FC00003FC0
FE00001FC0
FE00001FC0
FF00001F80
FF80001F80
FFC0001F80
FFE0001F00
FFF0001F00
F9F8003E00
E07E007C00
C01FE7F000
C007FFE000
C000FF0000
ENDCHAR
STARTCHAR t
ENCODING 116
SWIDTH 364 0
DWIDTH 36 0
BBX 32 68 2 -1
BITMAP
0007C000
0007C000
0007C000
0007C000
0007C000
0007C000
0007C000
000FC000
000FC000
000FC000
001FC000
001FC000
003FC000
003FC000
007FC000
00FFC000
01FFC000
07FFC000
3FFFC000
FFFFFFF0
FFFFFFF0
FFFFFFF0
03FFC000
03FFC000
03FFC000
03FFC000
03FFC000
03FFC000
03FFC000
03FFC000
03FFC000
03FFC000
03FFC000
03FFC000
03FFC000
03FFC000
03FFC000
03FFC000
03FFC000
03FFC000
03FFC000
03FFC000
03FFC000
03FFC000
03FFC000
03FFC007
03FFC007
03FFC007
03FFC007
03FFC007
03FFC007
03FFC007
03FFC007
03FFC007
03FFC00E
03FFC00E
03FFC00E
03FFC00E
03FFC00E
03FFC01C
01FFC01C
01FFC03C
00FFE078
00FFF9F0
007FFFF0
003FFFE0
000FFF80
0001FE00
ENDCHAR
STARTCHAR u
ENCODING 117
SWIDTH 550 0
DWIDTH 55 0
BBX 50 49 2 -1
BITMAP
FFFFC03FFFF000
FFFFC03FFFF000
07FFC001FFF000
01FFC0007FF000
01FFC0007FF000
01FFC0007FF000
01FFC0007FF000
01FFC0007FF000
01FFC0007FF000
01FFC0007FF000
01FFC0007FF000
01FFC0007FF000
01FFC0007FF000
01FFC0007FF000
01FFC0007FF000
01FFC0007FF000
01FFC0007FF000
01FFC0007FF000
01FFC0007FF000
01FFC0007FF000
01FFC0007FF000
01FFC0007FF000
01FFC0007FF000
01FFC0007FF000
01FFC0007FF000
01FFC0007FF000
01FFC0007FF000
01FFC0007FF000
01FFC0007FF000
01FFC0007FF000
01FFC0007FF000
01FFC000FFF000
01FFC000FFF000
01FFC000FFF000
01FFC000FFF000
01FFC000FFF000
01FFC001FFF000
01FFC001FFF000
01FFC003FFF000
01FFC0037FF000
00FFE0027FF000
00FFE0067FF000
007FE0047FF000
007FE00C7FF000
003FF0187FF000
001FFCF07FF000
000FFFE07FFC00
0007FF807FFFC0
0000FE007FFFC0
ENDCHAR
STARTCHAR v
ENCODING 118
SWIDTH 530 0
DWIDTH 53 0
BBX 48 49 2 -1
BITMAP
FFFFFF01FFFF
FFFFFF01FFFF
3FFFF8003FF8
07FFE0000FE0
03FFE00007C0
01FFE00007C0
01FFE0000780
00FFE0000780
00FFF0000700
00FFF0000700
007FF8000F00
007FF8000E00
007FF8000E00
003FFC001C00
003FFC001C00
001FFC001C00
001FFE003800
001FFE003800
000FFE003800
000FFF007000
000FFF007000
0007FF80F000
0007FF80E000
0007FF80E000
0003FFC1C000
0003FFC1C000
0001FFC1C000
0001FFE38000
0001FFE38000
0000FFE38000
0000FFF70000
0000FFF70000
00007FFF0000
00007FFE0000
00007FFE0000
00003FFE0000
00003FFC0000
00001FFC0000
00001FF80000
00001FF80000
00000FF80000
00000FF00000
00000FF00000
000007F00000
000007E00000
000007E00000
000003E00000
000003C00000
000001C00000
ENDCHAR
STARTCHAR w
ENCODING 119
SWIDTH 776 0
DWIDTH 78 0
BBX 73 49 2 -1
BITMAP
FFFFFE1FFFFFE0FFFF80
FFFFFE1FFFFFE0FFFF80
3FFFF807FFFE001FFE00
07FFE000FFFC0007F000
03FFE0007FF80003E000
01FFE0007FF80003E000
01FFE0003FFC0003C000
00FFE0003FFC0003C000
00FFF0003FFC00038000
00FFF0001FFE00038000
007FF8001FFE00038000
007FF8000FFE00070000
003FF8000FFF00070000
003FFC000FFF00070000
003FFC001FFF000E0000
001FFC001FFF800E0000
001FFE003FFF801E0000
001FFE003BFF801C0000
000FFE003BFFC01C0000
000FFF0073FFC0380000
000FFF0071FFC0380000
0007FF8071FFE0380000
0007FF80E1FFE0700000
0003FF80E0FFE0700000
0003FFC0C0FFF0700000
0003FFC1C0FFF0E00000
0001FFC1C07FF0E00000
0001FFE1807FF9E00000
0001FFE3807FF9C00000
0000FFE3807FF9C00000
0000FFF7003FFFC00000
0000FFF7003FFF800000
00007FF7003FFF800000
00007FFE001FFF000000
00007FFE001FFF000000
00003FFE001FFF000000
00003FFC000FFE000000
00001FFC000FFE000000
00001FF8000FFE000000
00001FF80007FC000000
00000FF80007FC000000
00000FF00007FC000000
00000FF00003F8000000
000007F00003F8000000
000007E00003F0000000
000007E00001F0000000
000003E00001F0000000
000003C00001E0000000
000001C00000E0000000
ENDCHAR
STARTCHAR x
ENCODING 120
SWIDTH 520 0
DWIDTH 52 0
BBX 48 49 2 -1
BITMAP
FFFFFE1FFFF8
FFFFFE1FFFF8
1FFFF800FFC0
07FFF0003F00
03FFF0003E00
01FFF0003C00
01FFF0003800
00FFF8007800
00FFFC007000
007FFC00E000
007FFE01E000
003FFE01C000
001FFF038000
001FFF078000
000FFF870000
000FFFCE0000
0007FFDE0000
0007FFFC0000
0003FFF80000
0001FFF80000
0001FFF80000
0000FFF80000
0000FFFC0000
00007FFC0000
00003FFE0000
00003FFE0000
00001FFF0000
00001FFF8000
00001FFF8000
00001FFFC000
00003FFFC000
00007BFFE000
000073FFF000
0000E1FFF000
0001E1FFF800
0003C0FFF800
000380FFFC00
0007807FFC00
000F003FFE00
000E003FFF00
001E001FFF00
003E001FFF80
003E000FFF80
007E000FFFC0
00FE000FFFE0
01FE000FFFF0
07FF801FFFFC
FFFFF87FFFFF
FFFFF87FFFFF
ENDCHAR
STARTCHAR y
ENCODING 121
SWIDTH 524 0
DWIDTH 52 0
BBX 48 73 1 -25
BITMAP
FFFFFF80FFFF
FFFFFF80FFFF
3FFFF8001FFC
07FFF00007E0
03FFE00007C0
01FFE00003C0
01FFF0000380
01FFF0000380
00FFF0000700
00FFF8000700
007FF8000700
007FFC000600
003FFC000E00
003FFC000E00
003FFE000E00
001FFE000C00
001FFF001C00
000FFF001C00
000FFF001800
000FFF803800
0007FF803800
0007FFC03000
0003FFC03000
0003FFC07000
0003FFE07000
0001FFE06000
0001FFF0E000
0000FFF0E000
0000FFF0C000
0000FFF9C000
00007FF9C000
00007FFDC000
00003FFD8000
00003FFF8000
00003FFF8000
00001FFF0000
00001FFF0000
00000FFF0000
00000FFE0000
000007FE0000
000007FE0000
000007FE0000
000003FC0000
000003FC0000
000001FC0000
000001F80000
000001F80000
000000F80000
000000F80000
000000700000
000000700000
000000700000
000000600000
000000E00000
000000E00000
001C00E00000
00FF00C00000
01FF81C00000
01FFC1C00000
03FFC1800000
03FFC3800000
07FFC3800000
07FF83000000
07FF87000000
07FF07000000
07FE06000000
07FE0E000000
03FE0C000000
03FE1C000000
01FF38000000
00FFF0000000
007FE0000000
001F80000000
ENDCHAR
STARTCHAR z
ENCODING 122
SWIDTH 460 0
DWIDTH 46 0
BBX 38 49 3 -1
BITMAP
0FFFFFFFFC
0FFFFFFFFC
0FFFC07FFC
1FFC007FFC
1FF000FFF8
1FE001FFF0
1FC001FFF0
1F8003FFE0
1F8003FFE0
1F0007FFC0
1F0007FFC0
1E000FFF80
1E001FFF00
1C001FFF00
1C003FFE00
1C003FFE00
1C007FFC00
18007FFC00
0000FFF800
0001FFF000
0001FFF000
0003FFE000
0003FFE000
0007FFC000
0007FFC000
000FFF8000
000FFF0000
001FFF0000
003FFE000C
003FFE000C
007FFC001C
007FFC001C
00FFF8001C
00FFF0001C
01FFF0001C
03FFE0003C
03FFE0003C
07FFC0007C
07FFC0007C
0FFF8000FC
0FFF0000FC
1FFF0001FC
3FFE0003FC
3FFE0007FC
7FFC000FFC
7FFC003FFC
FFF801FFFC
FFFFFFFFFC
FFFFFFFFFC
ENDCHAR
ENDFONT
